<?xml version="1.0" standalone="no"?>
<!DOCTYPE svg PUBLIC "-//W3C//DTD SVG 20010904//EN"
 "http://www.w3.org/TR/2001/REC-SVG-20010904/DTD/svg10.dtd">
<svg version="1.0" xmlns="http://www.w3.org/2000/svg"
 width="395.000000pt" height="395.000000pt" viewBox="0 0 395.000000 395.000000"
 preserveAspectRatio="xMidYMid meet">
<metadata>
Created by potrace 1.11, written by Peter Selinger 2001-2013
</metadata>
<g transform="translate(0.000000,395.000000) scale(0.100000,-0.100000)"
fill="#000000" stroke="none">
<path d="M0 1975 l0 -1975 1975 0 1975 0 0 1975 0 1975 -1975 0 -1975 0 0
-1975z m2246 1110 c194 -28 350 -73 487 -142 37 -18 70 -40 73 -47 7 -18 -147
-406 -161 -406 -7 0 -54 22 -106 49 -100 52 -179 82 -269 101 -30 6 -71 16
-91 21 -20 5 -91 9 -158 9 -287 0 -440 -107 -407 -285 19 -101 115 -145 531
-245 146 -36 153 -38 285 -81 329 -108 478 -286 480 -571 0 -171 -58 -308
-184 -433 -45 -44 -107 -95 -138 -113 -333 -195 -873 -201 -1328 -15 -102 42
-220 112 -220 132 0 16 157 361 170 375 5 5 37 -8 78 -33 66 -40 216 -106 277
-122 188 -49 256 -59 391 -59 245 0 382 60 414 181 17 62 4 114 -39 159 -65
69 -140 96 -526 191 -334 82 -474 149 -598 282 -89 97 -127 205 -127 362 0
371 258 617 725 690 114 18 313 18 441 0z"/>
</g>
</svg>
